<?xml version="1.0" encoding="utf-8"?>
<!-- Generator: Adobe Illustrator 19.1.0, SVG Export Plug-In . SVG Version: 6.00 Build 0)  -->
<svg version="1.1" id="レイヤー_1" xmlns:sketch="http://www.bohemiancoding.com/sketch/ns"
	 xmlns="http://www.w3.org/2000/svg" xmlns:xlink="http://www.w3.org/1999/xlink" x="0px" y="0px" viewBox="-194 285.3 30 26"
	 style="enable-background:new -194 285.3 30 26;" xml:space="preserve">
<style type="text/css">
	.st0{enable-background:new    ;}
	.st1{fill:#E83534;}
</style>
<g id="Page-1" sketch:type="MSPage">
	<g id="PROTOPAGE" transform="translate(-1195.000000, -137.000000)" sketch:type="MSArtboardGroup">
		<g class="st0">
			<path class="st1" d="M1023.8,422.9c1.5,0,2.9,0.4,4,1.2s2,1.8,2.5,3s0.7,2.5,0.7,3.8s-0.3,2.5-0.9,3.5c-1,1.9-2.7,3.9-5.1,6.1
				c-2.4,2.2-4.4,3.9-6.3,5.2l-2.7,1.9c-0.3-0.2-0.7-0.4-1.2-0.8c-0.5-0.3-1.4-1-2.8-2c-1.4-1-2.6-2-3.8-3c-1.1-1-2.3-2.2-3.6-3.5
				c-1.2-1.4-2.2-2.6-2.8-3.8c-0.6-1-0.9-2.2-0.9-3.5s0.2-2.6,0.7-3.8s1.3-2.2,2.4-3c1.1-0.8,2.5-1.2,4.1-1.2c1.4,0,2.6,0.3,3.7,0.8
				c1.1,0.5,1.9,1.2,2.4,2s0.9,1.4,1.2,1.9c0.2,0.5,0.4,0.9,0.5,1.3c0.1-0.4,0.3-0.8,0.5-1.3s0.6-1.1,1.2-1.9c0.5-0.8,1.4-1.5,2.4-2
				C1021.2,423.2,1022.5,422.9,1023.8,422.9z"/>
		</g>
	</g>
</g>
</svg>
